<?xml version="1.0" encoding="UTF-8" standalone="no"?>
<!DOCTYPE svg PUBLIC "-//W3C//DTD SVG 1.1//EN" "http://www.w3.org/Graphics/SVG/1.1/DTD/svg11.dtd">
<svg width="100%" height="100%" viewBox="0 0 50 50" version="1.1" xmlns="http://www.w3.org/2000/svg" xmlns:xlink="http://www.w3.org/1999/xlink" xml:space="preserve" xmlns:serif="http://www.serif.com/" style="fill-rule:evenodd;clip-rule:evenodd;stroke-linejoin:round;stroke-miterlimit:2;">
    <g transform="matrix(0.793257,0,0,0.793257,4.73786,4.9446)">
        <path d="M22.917,33.833C28.394,33.833 32.833,29.394 32.833,23.917C32.833,18.44 28.394,14 22.917,14C17.44,14 13,18.44 13,23.917C13,29.394 17.44,33.833 22.917,33.833Z" style="fill:rgb(85,85,85);"/>
    </g>
    <path d="M25,0C20.055,0 15.222,1.466 11.111,4.213C7,6.96 3.795,10.865 1.903,15.433C0.011,20.001 -0.484,25.028 0.48,29.877C1.445,34.727 3.826,39.181 7.322,42.678C10.819,46.174 15.273,48.555 20.123,49.52C24.972,50.484 29.999,49.989 34.567,48.097C39.135,46.205 43.04,43.001 45.787,38.889C48.534,34.778 50,29.945 50,25C50,18.37 47.366,12.011 42.678,7.322C37.989,2.634 31.63,0 25,0ZM33.293,30.757C34.589,28.795 35.344,26.444 35.344,23.918C35.344,17.058 29.777,11.489 22.921,11.489C16.064,11.489 10.498,17.058 10.498,23.918C10.498,30.777 16.064,36.346 22.921,36.346C25.447,36.346 27.798,35.59 29.759,34.293L29.759,34.293L36.094,40.63C36.094,40.63 37.829,42.707 39.767,40.769C41.705,38.83 39.63,37.094 39.63,37.094L33.293,30.757L33.293,30.757Z" style="fill:rgb(85,85,85);"/>
</svg>
