<?xml version="1.0" encoding="UTF-8" standalone="no"?>
<!DOCTYPE svg PUBLIC "-//W3C//DTD SVG 1.1//EN" "http://www.w3.org/Graphics/SVG/1.1/DTD/svg11.dtd">
<svg width="100%" height="100%" viewBox="0 0 377 148" version="1.1" xmlns="http://www.w3.org/2000/svg" xmlns:xlink="http://www.w3.org/1999/xlink" xml:space="preserve" xmlns:serif="http://www.serif.com/" style="fill-rule:evenodd;clip-rule:evenodd;stroke-linejoin:round;stroke-miterlimit:2;">
    <g id="Artboard1" transform="matrix(2.14037,0,0,0.827437,-1095.97,-256.728)">
        <rect x="512.048" y="310.269" width="175.905" height="178.755" style="fill:none;"/>
        <g transform="matrix(0.467209,0,0,1.20855,71.5271,-63.3121)">
            <g>
                <g transform="matrix(3.50147,0,0,4.62796,-724.006,-1997.78)">
                    <g transform="matrix(16.4317,0,0,10.9545,513.445,505.995)">
                        <path d="M0.55,-0.49C0.55,-0.502 0.543,-0.508 0.528,-0.508L0.528,-0.526L0.682,-0.526L0.682,-0.508C0.677,-0.508 0.673,-0.507 0.67,-0.504C0.666,-0.501 0.664,-0.496 0.664,-0.49L0.664,-0.036C0.664,-0.03 0.666,-0.025 0.67,-0.023C0.673,-0.02 0.677,-0.018 0.682,-0.018L0.682,-0L0.528,-0L0.528,-0.018C0.543,-0.018 0.55,-0.024 0.55,-0.036L0.55,-0.224L0.228,-0.224L0.228,-0.036C0.228,-0.03 0.23,-0.025 0.234,-0.023C0.237,-0.02 0.241,-0.018 0.246,-0.018L0.246,-0L0.095,-0L0.095,-0.018C0.108,-0.018 0.114,-0.024 0.114,-0.036L0.114,-0.49C0.114,-0.502 0.108,-0.508 0.095,-0.508L0.095,-0.526L0.246,-0.526L0.246,-0.508C0.241,-0.508 0.237,-0.507 0.234,-0.504C0.23,-0.501 0.228,-0.496 0.228,-0.49L0.228,-0.32L0.55,-0.32L0.55,-0.49Z" style="fill:rgb(29,132,181);fill-rule:nonzero;"/>
                    </g>
                    <g transform="matrix(16.4317,0,0,10.9545,527.625,505.995)">
                        <path d="M0.081,-0.018C0.093,-0.018 0.099,-0.023 0.099,-0.033L0.099,-0.407C0.099,-0.417 0.093,-0.422 0.081,-0.422L0.081,-0.44L0.228,-0.44L0.228,-0.422C0.223,-0.421 0.221,-0.42 0.221,-0.417C0.221,-0.414 0.228,-0.405 0.243,-0.39L0.483,-0.136L0.483,-0.407C0.483,-0.417 0.476,-0.422 0.463,-0.422L0.463,-0.44L0.585,-0.44L0.585,-0.422C0.573,-0.422 0.567,-0.417 0.567,-0.407L0.567,-0.033C0.567,-0.023 0.573,-0.018 0.585,-0.018L0.585,-0L0.455,-0L0.455,-0.018C0.46,-0.018 0.462,-0.02 0.462,-0.023C0.462,-0.026 0.459,-0.03 0.453,-0.037C0.446,-0.044 0.439,-0.051 0.431,-0.06L0.183,-0.324L0.183,-0.033C0.183,-0.023 0.19,-0.018 0.204,-0.018L0.204,-0L0.081,-0L0.081,-0.018Z" style="fill:rgb(29,132,181);fill-rule:nonzero;"/>
                    </g>
                    <g transform="matrix(16.4317,0,0,10.9545,539.982,505.995)">
                        <path d="M0.217,-0.422C0.202,-0.422 0.195,-0.417 0.195,-0.407L0.195,-0.178C0.195,-0.146 0.207,-0.12 0.23,-0.101C0.253,-0.082 0.289,-0.072 0.337,-0.072C0.385,-0.072 0.421,-0.082 0.444,-0.101C0.467,-0.12 0.479,-0.146 0.479,-0.178L0.479,-0.407C0.479,-0.417 0.471,-0.422 0.454,-0.422L0.454,-0.44L0.593,-0.44L0.593,-0.422C0.578,-0.422 0.571,-0.417 0.571,-0.407L0.571,-0.154C0.571,-0.133 0.566,-0.114 0.557,-0.095C0.548,-0.076 0.534,-0.059 0.515,-0.044C0.496,-0.029 0.471,-0.018 0.442,-0.01C0.412,-0.001 0.377,0.003 0.337,0.003C0.297,0.003 0.262,-0.001 0.233,-0.01C0.203,-0.018 0.179,-0.029 0.16,-0.044C0.14,-0.059 0.126,-0.076 0.117,-0.095C0.108,-0.114 0.103,-0.133 0.103,-0.154L0.103,-0.407C0.103,-0.412 0.101,-0.416 0.097,-0.419C0.093,-0.421 0.085,-0.422 0.074,-0.422L0.074,-0.44L0.217,-0.44L0.217,-0.422Z" style="fill:rgb(29,132,181);fill-rule:nonzero;"/>
                    </g>
                    <g transform="matrix(16.4317,0,0,10.9545,552.339,505.995)">
                        <path d="M0.187,-0.018C0.19,-0.018 0.194,-0.019 0.197,-0.022C0.2,-0.024 0.202,-0.028 0.202,-0.033L0.202,-0.366L0.072,-0.366C0.067,-0.366 0.062,-0.365 0.057,-0.362C0.052,-0.359 0.05,-0.355 0.05,-0.349L0.032,-0.349L0.032,-0.464L0.05,-0.464C0.05,-0.455 0.052,-0.448 0.057,-0.445C0.062,-0.442 0.067,-0.44 0.072,-0.44L0.428,-0.44C0.433,-0.44 0.438,-0.442 0.443,-0.445C0.448,-0.448 0.45,-0.455 0.45,-0.464L0.468,-0.464L0.468,-0.349L0.45,-0.349C0.45,-0.355 0.448,-0.359 0.443,-0.362C0.438,-0.365 0.433,-0.366 0.428,-0.366L0.298,-0.366L0.298,-0.033C0.298,-0.023 0.304,-0.018 0.316,-0.018L0.316,-0L0.187,-0L0.187,-0.018Z" style="fill:rgb(29,132,181);fill-rule:nonzero;"/>
                    </g>
                    <g transform="matrix(16.4317,0,0,10.9545,561.951,505.995)">
                        <path d="M0.175,-0.49L0.091,-0.49L0.182,-0.634L0.317,-0.634L0.175,-0.49ZM0.09,-0.018C0.101,-0.018 0.108,-0.019 0.112,-0.022C0.116,-0.024 0.118,-0.028 0.118,-0.033L0.118,-0.407C0.118,-0.412 0.116,-0.416 0.112,-0.419C0.108,-0.421 0.101,-0.422 0.09,-0.422L0.09,-0.44L0.242,-0.44L0.242,-0.422C0.223,-0.422 0.214,-0.417 0.214,-0.407L0.214,-0.033C0.214,-0.023 0.223,-0.018 0.242,-0.018L0.242,-0L0.09,-0L0.09,-0.018Z" style="fill:rgb(29,132,181);fill-rule:nonzero;"/>
                    </g>
                    <g transform="matrix(16.4317,0,0,10.9545,520.79,517.158)">
                        <path d="M0.574,0.019C0.574,0.009 0.571,0.003 0.565,0.002C0.558,0.001 0.55,-0 0.54,-0L0.064,-0L0.064,-0.018C0.084,-0.018 0.094,-0.024 0.094,-0.036L0.094,-0.49C0.094,-0.502 0.084,-0.508 0.064,-0.508L0.064,-0.526L0.236,-0.526L0.236,-0.508C0.217,-0.508 0.208,-0.502 0.208,-0.49L0.208,-0.092L0.54,-0.092C0.55,-0.092 0.558,-0.094 0.565,-0.099C0.571,-0.104 0.574,-0.11 0.574,-0.118L0.592,-0.118L0.592,0.019L0.574,0.019Z" style="fill:rgb(29,132,181);fill-rule:nonzero;"/>
                    </g>
                    <g transform="matrix(16.4317,0,0,10.9545,532.226,517.158)">
                        <path d="M0.305,-0.372C0.284,-0.372 0.263,-0.369 0.243,-0.362C0.222,-0.355 0.204,-0.345 0.188,-0.332C0.172,-0.319 0.159,-0.303 0.15,-0.284C0.14,-0.265 0.135,-0.244 0.135,-0.22C0.135,-0.196 0.14,-0.175 0.15,-0.156C0.159,-0.137 0.172,-0.122 0.188,-0.109C0.204,-0.095 0.222,-0.086 0.243,-0.079C0.263,-0.072 0.284,-0.068 0.305,-0.068C0.326,-0.068 0.347,-0.072 0.368,-0.079C0.388,-0.086 0.406,-0.095 0.422,-0.109C0.438,-0.122 0.451,-0.137 0.461,-0.156C0.47,-0.175 0.475,-0.196 0.475,-0.22C0.475,-0.244 0.47,-0.265 0.461,-0.284C0.451,-0.303 0.438,-0.319 0.422,-0.332C0.406,-0.345 0.388,-0.355 0.368,-0.362C0.347,-0.369 0.326,-0.372 0.305,-0.372ZM0.305,-0.446C0.342,-0.446 0.376,-0.441 0.409,-0.432C0.441,-0.423 0.469,-0.409 0.493,-0.39C0.517,-0.371 0.536,-0.348 0.55,-0.32C0.564,-0.291 0.571,-0.258 0.571,-0.22C0.571,-0.182 0.564,-0.149 0.55,-0.121C0.536,-0.092 0.517,-0.069 0.493,-0.05C0.469,-0.031 0.441,-0.018 0.409,-0.01C0.376,-0.001 0.342,0.003 0.305,0.003C0.268,0.003 0.234,-0.001 0.202,-0.01C0.169,-0.018 0.141,-0.031 0.117,-0.05C0.093,-0.069 0.074,-0.092 0.06,-0.121C0.046,-0.149 0.039,-0.182 0.039,-0.22C0.039,-0.258 0.046,-0.291 0.06,-0.32C0.074,-0.348 0.093,-0.371 0.117,-0.39C0.141,-0.409 0.169,-0.423 0.202,-0.432C0.234,-0.441 0.268,-0.446 0.305,-0.446Z" style="fill:rgb(29,132,181);fill-rule:nonzero;"/>
                    </g>
                    <g transform="matrix(16.4317,0,0,10.9545,543.663,517.158)">
                        <path d="M0.352,-0.25C0.417,-0.25 0.45,-0.271 0.45,-0.312C0.45,-0.329 0.442,-0.342 0.427,-0.352C0.411,-0.361 0.386,-0.366 0.352,-0.366L0.194,-0.366L0.194,-0.25L0.352,-0.25ZM0.354,-0.44C0.413,-0.44 0.46,-0.43 0.493,-0.411C0.526,-0.391 0.543,-0.357 0.543,-0.31C0.543,-0.292 0.54,-0.276 0.533,-0.262C0.526,-0.248 0.518,-0.236 0.507,-0.226C0.496,-0.215 0.483,-0.207 0.47,-0.201C0.457,-0.194 0.443,-0.189 0.429,-0.186L0.527,-0.043C0.532,-0.036 0.538,-0.03 0.545,-0.027C0.551,-0.023 0.558,-0.02 0.565,-0.018L0.565,-0L0.412,-0L0.412,-0.018C0.421,-0.018 0.425,-0.021 0.425,-0.027C0.425,-0.034 0.42,-0.044 0.41,-0.058L0.331,-0.176L0.192,-0.176L0.192,-0.033C0.192,-0.028 0.194,-0.024 0.199,-0.022C0.203,-0.019 0.207,-0.018 0.211,-0.018L0.211,-0L0.078,-0L0.078,-0.018C0.09,-0.018 0.096,-0.023 0.096,-0.033L0.096,-0.407C0.096,-0.417 0.09,-0.422 0.078,-0.422L0.078,-0.44L0.354,-0.44Z" style="fill:rgb(29,132,181);fill-rule:nonzero;"/>
                    </g>
                    <g transform="matrix(16.4317,0,0,10.9545,555.099,517.158)">
                        <path d="M0.468,-0.347C0.468,-0.36 0.458,-0.366 0.437,-0.366L0.193,-0.366L0.193,-0.266L0.347,-0.266C0.358,-0.266 0.367,-0.267 0.372,-0.269C0.377,-0.27 0.38,-0.275 0.38,-0.282L0.398,-0.282L0.398,-0.176L0.378,-0.176C0.38,-0.183 0.377,-0.188 0.37,-0.19C0.363,-0.191 0.352,-0.192 0.339,-0.192L0.193,-0.192L0.193,-0.074L0.449,-0.074C0.457,-0.074 0.464,-0.076 0.469,-0.08C0.474,-0.083 0.477,-0.088 0.477,-0.094L0.495,-0.094L0.495,0.011L0.477,0.011C0.477,0.005 0.474,0.002 0.469,0.001C0.464,0 0.457,-0 0.449,-0L0.082,-0L0.082,-0.018C0.085,-0.018 0.089,-0.019 0.092,-0.022C0.095,-0.024 0.097,-0.028 0.097,-0.033L0.097,-0.407C0.097,-0.412 0.095,-0.416 0.092,-0.419C0.089,-0.421 0.085,-0.422 0.082,-0.422L0.082,-0.44L0.437,-0.44C0.458,-0.44 0.468,-0.446 0.468,-0.458L0.486,-0.458L0.486,-0.347L0.468,-0.347Z" style="fill:rgb(29,132,181);fill-rule:nonzero;"/>
                    </g>
                    <g transform="matrix(16.4317,0,0,10.9545,565.632,517.158)">
                        <path d="M0.093,-0.018C0.096,-0.019 0.099,-0.02 0.102,-0.022C0.104,-0.024 0.105,-0.029 0.105,-0.036L0.105,-0.402C0.105,-0.411 0.104,-0.417 0.103,-0.419C0.101,-0.421 0.098,-0.422 0.093,-0.422L0.093,-0.44L0.232,-0.44L0.232,-0.422C0.225,-0.422 0.222,-0.419 0.222,-0.413C0.222,-0.41 0.223,-0.407 0.226,-0.403C0.228,-0.398 0.231,-0.392 0.236,-0.384L0.358,-0.159L0.481,-0.383C0.486,-0.391 0.489,-0.398 0.492,-0.403C0.495,-0.408 0.496,-0.411 0.496,-0.413C0.496,-0.419 0.493,-0.422 0.488,-0.422L0.488,-0.44L0.629,-0.44L0.629,-0.422C0.626,-0.422 0.623,-0.421 0.62,-0.42C0.616,-0.418 0.615,-0.414 0.615,-0.409L0.615,-0.033C0.615,-0.028 0.616,-0.024 0.62,-0.022C0.623,-0.019 0.626,-0.018 0.629,-0.018L0.629,-0L0.513,-0L0.513,-0.018C0.527,-0.018 0.533,-0.023 0.531,-0.033L0.531,-0.314L0.529,-0.314L0.359,-0L0.351,-0L0.19,-0.314L0.191,-0.314L0.189,-0.314L0.189,-0.033C0.189,-0.023 0.195,-0.018 0.206,-0.018L0.206,-0L0.093,-0L0.093,-0.018Z" style="fill:rgb(29,132,181);fill-rule:nonzero;"/>
                    </g>
                    <g transform="matrix(16.4317,0,0,10.9545,527.972,528.32)">
                        <path d="M0.083,-0.018C0.1,-0.018 0.109,-0.024 0.109,-0.036L0.109,-0.49C0.109,-0.502 0.1,-0.508 0.083,-0.508L0.083,-0.526L0.249,-0.526L0.249,-0.508C0.232,-0.508 0.223,-0.502 0.223,-0.49L0.223,-0.036C0.223,-0.024 0.232,-0.018 0.249,-0.018L0.249,-0L0.083,-0L0.083,-0.018Z" style="fill:rgb(29,132,181);fill-rule:nonzero;"/>
                    </g>
                    <g transform="matrix(16.4317,0,0,10.9545,534.84,528.32)">
                        <path d="M0.356,-0.257C0.375,-0.257 0.392,-0.261 0.405,-0.268C0.418,-0.275 0.424,-0.289 0.424,-0.31C0.424,-0.331 0.418,-0.345 0.405,-0.354C0.392,-0.362 0.375,-0.366 0.356,-0.366L0.188,-0.366L0.188,-0.257L0.356,-0.257ZM0.092,-0.407C0.092,-0.417 0.084,-0.422 0.067,-0.422L0.067,-0.44L0.358,-0.44C0.412,-0.44 0.452,-0.43 0.48,-0.411C0.507,-0.392 0.52,-0.358 0.52,-0.31C0.52,-0.262 0.507,-0.229 0.48,-0.211C0.452,-0.192 0.412,-0.183 0.358,-0.183L0.188,-0.183L0.188,-0.033C0.188,-0.023 0.195,-0.018 0.209,-0.018L0.209,-0L0.067,-0L0.067,-0.018C0.084,-0.018 0.092,-0.023 0.092,-0.033L0.092,-0.407Z" style="fill:rgb(29,132,181);fill-rule:nonzero;"/>
                    </g>
                    <g transform="matrix(16.4317,0,0,10.9545,545.373,528.32)">
                        <path d="M0.111,-0.153L0.11,-0.135C0.11,-0.125 0.116,-0.116 0.129,-0.108C0.142,-0.099 0.157,-0.092 0.175,-0.087C0.192,-0.081 0.21,-0.076 0.228,-0.073C0.245,-0.07 0.259,-0.068 0.269,-0.068C0.278,-0.068 0.29,-0.069 0.304,-0.07C0.317,-0.071 0.331,-0.074 0.344,-0.079C0.357,-0.083 0.369,-0.089 0.378,-0.097C0.387,-0.104 0.392,-0.114 0.392,-0.127C0.392,-0.142 0.384,-0.152 0.368,-0.159C0.351,-0.166 0.331,-0.171 0.306,-0.175C0.281,-0.178 0.255,-0.182 0.226,-0.186C0.197,-0.189 0.171,-0.195 0.146,-0.204C0.121,-0.212 0.101,-0.224 0.085,-0.24C0.068,-0.255 0.06,-0.277 0.06,-0.306C0.06,-0.349 0.078,-0.383 0.113,-0.408C0.148,-0.433 0.198,-0.446 0.262,-0.446C0.293,-0.446 0.32,-0.444 0.343,-0.439C0.365,-0.434 0.384,-0.428 0.399,-0.422C0.414,-0.416 0.427,-0.411 0.437,-0.406C0.446,-0.401 0.453,-0.398 0.458,-0.398C0.463,-0.398 0.467,-0.399 0.47,-0.401C0.473,-0.402 0.476,-0.404 0.48,-0.406L0.491,-0.395L0.441,-0.301L0.423,-0.307C0.422,-0.311 0.422,-0.315 0.421,-0.319C0.42,-0.323 0.417,-0.327 0.412,-0.331C0.399,-0.342 0.378,-0.352 0.35,-0.36C0.322,-0.368 0.291,-0.372 0.256,-0.372C0.243,-0.372 0.23,-0.371 0.218,-0.37C0.206,-0.368 0.195,-0.365 0.186,-0.361C0.177,-0.357 0.169,-0.352 0.164,-0.346C0.159,-0.339 0.156,-0.331 0.156,-0.322C0.156,-0.307 0.164,-0.297 0.181,-0.291C0.197,-0.284 0.217,-0.279 0.242,-0.276C0.267,-0.272 0.293,-0.268 0.322,-0.265C0.351,-0.261 0.377,-0.255 0.402,-0.246C0.427,-0.237 0.447,-0.225 0.464,-0.208C0.48,-0.191 0.488,-0.168 0.488,-0.139C0.488,-0.11 0.481,-0.086 0.467,-0.067C0.452,-0.048 0.434,-0.034 0.413,-0.023C0.392,-0.012 0.368,-0.005 0.343,-0.002C0.317,0.001 0.293,0.003 0.27,0.003C0.247,0.003 0.225,0.001 0.203,-0.004C0.18,-0.008 0.16,-0.013 0.142,-0.019C0.123,-0.024 0.108,-0.029 0.095,-0.035C0.082,-0.04 0.075,-0.042 0.072,-0.042C0.067,-0.042 0.063,-0.04 0.06,-0.036L0.046,-0.046L0.092,-0.158L0.111,-0.153Z" style="fill:rgb(29,132,181);fill-rule:nonzero;"/>
                    </g>
                    <g transform="matrix(16.4317,0,0,10.9545,555.906,528.32)">
                        <path d="M0.217,-0.422C0.202,-0.422 0.195,-0.417 0.195,-0.407L0.195,-0.178C0.195,-0.146 0.207,-0.12 0.23,-0.101C0.253,-0.082 0.289,-0.072 0.337,-0.072C0.385,-0.072 0.421,-0.082 0.444,-0.101C0.467,-0.12 0.479,-0.146 0.479,-0.178L0.479,-0.407C0.479,-0.417 0.471,-0.422 0.454,-0.422L0.454,-0.44L0.593,-0.44L0.593,-0.422C0.578,-0.422 0.571,-0.417 0.571,-0.407L0.571,-0.154C0.571,-0.133 0.566,-0.114 0.557,-0.095C0.548,-0.076 0.534,-0.059 0.515,-0.044C0.496,-0.029 0.471,-0.018 0.442,-0.01C0.412,-0.001 0.377,0.003 0.337,0.003C0.297,0.003 0.262,-0.001 0.233,-0.01C0.203,-0.018 0.179,-0.029 0.16,-0.044C0.14,-0.059 0.126,-0.076 0.117,-0.095C0.108,-0.114 0.103,-0.133 0.103,-0.154L0.103,-0.407C0.103,-0.412 0.101,-0.416 0.097,-0.419C0.093,-0.421 0.085,-0.422 0.074,-0.422L0.074,-0.44L0.217,-0.44L0.217,-0.422Z" style="fill:rgb(29,132,181);fill-rule:nonzero;"/>
                    </g>
                    <g transform="matrix(16.4317,0,0,10.9545,568.262,528.32)">
                        <path d="M0.093,-0.018C0.096,-0.019 0.099,-0.02 0.102,-0.022C0.104,-0.024 0.105,-0.029 0.105,-0.036L0.105,-0.402C0.105,-0.411 0.104,-0.417 0.103,-0.419C0.101,-0.421 0.098,-0.422 0.093,-0.422L0.093,-0.44L0.232,-0.44L0.232,-0.422C0.225,-0.422 0.222,-0.419 0.222,-0.413C0.222,-0.41 0.223,-0.407 0.226,-0.403C0.228,-0.398 0.231,-0.392 0.236,-0.384L0.358,-0.159L0.481,-0.383C0.486,-0.391 0.489,-0.398 0.492,-0.403C0.495,-0.408 0.496,-0.411 0.496,-0.413C0.496,-0.419 0.493,-0.422 0.488,-0.422L0.488,-0.44L0.629,-0.44L0.629,-0.422C0.626,-0.422 0.623,-0.421 0.62,-0.42C0.616,-0.418 0.615,-0.414 0.615,-0.409L0.615,-0.033C0.615,-0.028 0.616,-0.024 0.62,-0.022C0.623,-0.019 0.626,-0.018 0.629,-0.018L0.629,-0L0.513,-0L0.513,-0.018C0.527,-0.018 0.533,-0.023 0.531,-0.033L0.531,-0.314L0.529,-0.314L0.359,-0L0.351,-0L0.19,-0.314L0.191,-0.314L0.189,-0.314L0.189,-0.033C0.189,-0.023 0.195,-0.018 0.206,-0.018L0.206,-0L0.093,-0L0.093,-0.018Z" style="fill:rgb(29,132,181);fill-rule:nonzero;"/>
                    </g>
                </g>
                <g id="icon">
                    <path d="M1118.83,451.496L1062.62,351.091L1027.42,413.954L1048.44,451.496L1118.83,451.496Z" style="fill:rgb(29,132,181);fill-rule:nonzero;"/>
                    <path d="M1041.04,451.496L1023.72,420.561L1006.4,451.496L1041.04,451.496Z" style="fill:rgb(29,132,181);fill-rule:nonzero;"/>
                    <path d="M1021.94,309.384L942.925,451.496L998.224,451.496L1049.59,358.768L1021.94,309.384Z" style="fill:rgb(29,132,181);fill-rule:nonzero;"/>
                </g>
            </g>
        </g>
    </g>
</svg>
