<?xml version="1.0" encoding="UTF-8" standalone="no"?>
<!DOCTYPE svg PUBLIC "-//W3C//DTD SVG 1.1//EN" "http://www.w3.org/Graphics/SVG/1.1/DTD/svg11.dtd">
<svg width="100%" height="100%" viewBox="0 0 381 239" version="1.1" xmlns="http://www.w3.org/2000/svg" xmlns:xlink="http://www.w3.org/1999/xlink" xml:space="preserve" xmlns:serif="http://www.serif.com/" style="fill-rule:evenodd;clip-rule:evenodd;stroke-linejoin:round;stroke-miterlimit:2;">
    <g id="Artboard2" transform="matrix(0.919517,0,0,1,0,0)">
        <rect x="0" y="0" width="414" height="239" style="fill:none;"/>
        <clipPath id="_clip1">
            <rect x="0" y="0" width="414" height="239"/>
        </clipPath>
        <g clip-path="url(#_clip1)">
            <g id="Artboard1" transform="matrix(1.08753,0,0,1,-77.1821,-111.694)">
                <clipPath id="_clip2">
                    <rect x="71.01" y="111.694" width="381.034" height="238.024"/>
                </clipPath>
                <g clip-path="url(#_clip2)">
                    <rect x="43.162" y="111.694" width="413.59" height="238.024" style="fill:none;"/>
                    <g id="OBJECTS" transform="matrix(1,0,0,1,7.3037,4.7146)">
                        <g>
                            <g>
                                <g transform="matrix(166.473,0,0,-166.473,63.8759,225.884)">
                                    <path d="M0.079,0.288C-0.076,0.039 0.004,-0.288 0.254,-0.439C0.36,-0.503 0.479,-0.525 0.593,-0.51C0.613,-0.507 0.626,-0.488 0.622,-0.468C0.618,-0.447 0.597,-0.435 0.576,-0.441C0.475,-0.47 0.374,-0.441 0.278,-0.379C0.109,-0.27 0.072,-0.058 0.166,0.115C0.265,0.299 0.486,0.35 0.664,0.243C0.702,0.22 0.733,0.193 0.76,0.161C0.798,0.115 0.859,0.094 0.917,0.108L0.922,0.109C0.987,0.126 1.019,0.199 0.988,0.259C0.942,0.344 0.872,0.418 0.781,0.469C0.701,0.514 0.613,0.535 0.527,0.535C0.35,0.535 0.178,0.447 0.079,0.288Z" style="fill:url(#_Linear3);fill-rule:nonzero;"/>
                                </g>
                                <g transform="matrix(-22.9698,107.192,107.192,22.9698,147.021,165.098)">
                                    <path d="M0.248,-0.599C0.668,-0.75 1.128,-0.528 1.272,-0.108C1.312,0.01 1.324,0.13 1.31,0.245C1.332,-0.436 0.718,-0.523 0.486,-0.442C0.188,-0.337 0.027,-0.015 0.129,0.284C0.151,0.346 0.182,0.402 0.22,0.451C0.276,0.523 0.289,0.62 0.249,0.701L0.245,0.708C0.2,0.8 0.081,0.825 0.003,0.759C-0.109,0.664 -0.197,0.536 -0.244,0.384C-0.285,0.251 -0.288,0.115 -0.261,-0.014C-0.205,-0.275 -0.019,-0.503 0.248,-0.599Z" style="fill:url(#_Linear4);fill-rule:nonzero;"/>
                                </g>
                                <g transform="matrix(166.46,0,0,-166.46,63.8827,182.011)">
                                    <path d="M0.079,0.024C0.022,-0.068 -0.003,-0.171 0,-0.272C-0.004,-0.054 0.175,0.098 0.393,0.105C0.612,0.112 0.715,-0.014 0.769,-0.096C0.802,-0.146 0.859,-0.17 0.917,-0.155L0.922,-0.154C0.987,-0.138 1.019,-0.064 0.988,-0.005C0.942,0.08 0.872,0.154 0.781,0.206C0.701,0.25 0.613,0.271 0.527,0.271C0.35,0.272 0.178,0.183 0.079,0.024Z" style="fill:url(#_Linear5);fill-rule:nonzero;"/>
                                </g>
                                <g transform="matrix(-4.44089e-16,14.8813,14.8813,4.44089e-16,178.659,293.561)">
                                    <circle cx="0.423" cy="0" r="0.425" style="fill:url(#_Linear6);"/>
                                </g>
                                <g transform="matrix(1.64313e-14,9.98468,9.98468,-1.64313e-14,193.477,287.149)">
                                    <ellipse cx="0.486" cy="0" rx="0.462" ry="0.463" style="fill:url(#_Linear7);"/>
                                </g>
                                <g transform="matrix(-3.77476e-15,6.67198,6.67198,3.77476e-15,203.87,281.705)">
                                    <circle cx="0.406" cy="0" r="0.446" style="fill:url(#_Linear8);"/>
                                </g>
                            </g>
                            <g>
                                <g transform="matrix(47.8251,0,0,47.8251,116.737,255.154)">
                                    <path d="M0.5,-0.504C0.5,-0.523 0.497,-0.538 0.489,-0.551C0.482,-0.564 0.469,-0.575 0.451,-0.582C0.438,-0.587 0.423,-0.59 0.406,-0.592C0.389,-0.593 0.37,-0.593 0.347,-0.593L0.279,-0.593L0.279,-0.397L0.337,-0.397C0.367,-0.397 0.392,-0.399 0.412,-0.402C0.432,-0.405 0.449,-0.411 0.463,-0.422C0.476,-0.432 0.485,-0.443 0.491,-0.455C0.497,-0.468 0.5,-0.484 0.5,-0.504ZM0.793,-0L0.564,-0L0.366,-0.267L0.279,-0.267L0.279,-0L0.093,-0L0.093,-0.727L0.407,-0.727C0.45,-0.727 0.487,-0.725 0.518,-0.72C0.549,-0.715 0.578,-0.704 0.605,-0.688C0.632,-0.672 0.654,-0.651 0.67,-0.625C0.686,-0.599 0.694,-0.566 0.694,-0.527C0.694,-0.474 0.682,-0.43 0.657,-0.396C0.632,-0.362 0.597,-0.334 0.55,-0.312L0.793,-0Z" style="fill:rgb(84,83,91);fill-rule:nonzero;"/>
                                </g>
                                <g transform="matrix(47.8251,0,0,47.8251,151.179,255.154)">
                                    <path d="M0.619,-0L0.093,-0L0.093,-0.727L0.619,-0.727L0.619,-0.586L0.279,-0.586L0.279,-0.461L0.594,-0.461L0.594,-0.32L0.279,-0.32L0.279,-0.141L0.619,-0.141L0.619,-0Z" style="fill:rgb(84,83,91);fill-rule:nonzero;"/>
                                </g>
                                <g transform="matrix(47.8251,0,0,47.8251,180.88,255.154)">
                                    <path d="M0.655,-0L0.044,-0L0.044,-0.136L0.406,-0.586L0.062,-0.586L0.062,-0.727L0.635,-0.727L0.635,-0.588L0.273,-0.141L0.655,-0.141L0.655,-0Z" style="fill:rgb(84,83,91);fill-rule:nonzero;"/>
                                </g>
                                <g transform="matrix(47.8251,0,0,47.8251,211.002,255.154)">
                                    <path d="M0.619,-0L0.093,-0L0.093,-0.727L0.619,-0.727L0.619,-0.586L0.279,-0.586L0.279,-0.461L0.594,-0.461L0.594,-0.32L0.279,-0.32L0.279,-0.141L0.619,-0.141L0.619,-0Z" style="fill:rgb(84,83,91);fill-rule:nonzero;"/>
                                </g>
                                <g transform="matrix(47.8251,0,0,47.8251,240.703,255.154)">
                                    <path d="M0.5,-0.504C0.5,-0.523 0.497,-0.538 0.489,-0.551C0.482,-0.564 0.469,-0.575 0.451,-0.582C0.438,-0.587 0.423,-0.59 0.406,-0.592C0.389,-0.593 0.37,-0.593 0.347,-0.593L0.279,-0.593L0.279,-0.397L0.337,-0.397C0.367,-0.397 0.392,-0.399 0.412,-0.402C0.432,-0.405 0.449,-0.411 0.463,-0.422C0.476,-0.432 0.485,-0.443 0.491,-0.455C0.497,-0.468 0.5,-0.484 0.5,-0.504ZM0.793,-0L0.564,-0L0.366,-0.267L0.279,-0.267L0.279,-0L0.093,-0L0.093,-0.727L0.407,-0.727C0.45,-0.727 0.487,-0.725 0.518,-0.72C0.549,-0.715 0.578,-0.704 0.605,-0.688C0.632,-0.672 0.654,-0.651 0.67,-0.625C0.686,-0.599 0.694,-0.566 0.694,-0.527C0.694,-0.474 0.682,-0.43 0.657,-0.396C0.632,-0.362 0.597,-0.334 0.55,-0.312L0.793,-0Z" style="fill:rgb(84,83,91);fill-rule:nonzero;"/>
                                </g>
                                <g transform="matrix(47.8251,0,0,47.8251,275.145,255.154)">
                                    <path d="M0.752,-0.727L0.487,-0L0.277,-0L0.012,-0.727L0.208,-0.727L0.384,-0.216L0.56,-0.727L0.752,-0.727Z" style="fill:rgb(84,83,91);fill-rule:nonzero;"/>
                                </g>
                                <g transform="matrix(47.8251,0,0,47.8251,308.699,255.154)">
                                    <path d="M0.729,-0.263C0.729,-0.173 0.702,-0.104 0.647,-0.057C0.593,-0.009 0.512,0.015 0.406,0.015C0.299,0.015 0.219,-0.009 0.164,-0.057C0.11,-0.104 0.083,-0.173 0.083,-0.263L0.083,-0.727L0.271,-0.727L0.271,-0.273C0.271,-0.223 0.282,-0.185 0.303,-0.161C0.324,-0.136 0.358,-0.124 0.406,-0.124C0.453,-0.124 0.487,-0.135 0.509,-0.159C0.53,-0.183 0.541,-0.221 0.541,-0.273L0.541,-0.727L0.729,-0.727L0.729,-0.263Z" style="fill:rgb(84,83,91);fill-rule:nonzero;"/>
                                </g>
                                <g transform="matrix(47.8251,0,0,47.8251,344.566,255.154)">
                                    <path d="M0.472,-0.213C0.472,-0.181 0.466,-0.152 0.455,-0.124C0.443,-0.096 0.426,-0.072 0.404,-0.053C0.38,-0.033 0.351,-0.017 0.318,-0.006C0.284,0.006 0.243,0.011 0.193,0.011C0.16,0.011 0.128,0.01 0.099,0.008C0.069,0.005 0.043,0.002 0.021,-0.003L0.021,-0.15L0.038,-0.15C0.054,-0.145 0.07,-0.139 0.087,-0.134C0.104,-0.129 0.125,-0.126 0.152,-0.126C0.186,-0.126 0.212,-0.131 0.231,-0.14C0.249,-0.149 0.262,-0.162 0.27,-0.178C0.278,-0.194 0.282,-0.212 0.283,-0.231C0.284,-0.25 0.284,-0.274 0.284,-0.304L0.284,-0.593L0.118,-0.593L0.118,-0.727L0.472,-0.727L0.472,-0.213Z" style="fill:rgb(84,83,91);fill-rule:nonzero;"/>
                                </g>
                                <g transform="matrix(47.8251,0,0,47.8251,368.149,255.154)">
                                    <path d="M0.619,-0L0.093,-0L0.093,-0.727L0.619,-0.727L0.619,-0.586L0.279,-0.586L0.279,-0.461L0.594,-0.461L0.594,-0.32L0.279,-0.32L0.279,-0.141L0.619,-0.141L0.619,-0Z" style="fill:rgb(84,83,91);fill-rule:nonzero;"/>
                                </g>
                                <g transform="matrix(47.8251,0,0,47.8251,397.85,255.154)">
                                    <path d="M0.855,-0L0.668,-0L0.668,-0.487L0.534,-0.171L0.404,-0.171L0.27,-0.487L0.27,-0L0.093,-0L0.093,-0.727L0.311,-0.727L0.474,-0.362L0.637,-0.727L0.855,-0.727L0.855,-0Z" style="fill:rgb(84,83,91);fill-rule:nonzero;"/>
                                </g>
                                <g transform="matrix(12,0,0,12,238.773,273.044)">
                                    <path d="M0.093,-0L0.093,-0.723L0.312,-0.723C0.381,-0.723 0.434,-0.707 0.471,-0.677C0.508,-0.646 0.527,-0.602 0.527,-0.543C0.527,-0.447 0.478,-0.379 0.381,-0.338L0.622,-0L0.496,-0L0.291,-0.306L0.195,-0.306L0.195,-0L0.093,-0ZM0.195,-0.382L0.228,-0.382C0.357,-0.382 0.421,-0.433 0.421,-0.534C0.421,-0.609 0.367,-0.646 0.259,-0.646L0.195,-0.646L0.195,-0.382Z" style="fill:rgb(108,108,117);fill-rule:nonzero;"/>
                                </g>
                                <g transform="matrix(12,0,0,12,250.209,273.044)">
                                    <path d="M0.093,-0L0.093,-0.723L0.497,-0.723L0.497,-0.646L0.196,-0.646L0.196,-0.414L0.448,-0.414L0.448,-0.338L0.196,-0.338L0.196,-0.077L0.518,-0.077L0.518,-0L0.093,-0Z" style="fill:rgb(108,108,117);fill-rule:nonzero;"/>
                                </g>
                                <g transform="matrix(12,0,0,12,260.561,273.044)">
                                    <path d="M0.046,-0L0.046,-0.082L0.435,-0.646L0.07,-0.646L0.07,-0.723L0.558,-0.723L0.558,-0.646L0.169,-0.082L0.558,-0.082L0.558,-0L0.046,-0Z" style="fill:rgb(108,108,117);fill-rule:nonzero;"/>
                                </g>
                                <g transform="matrix(12,0,0,12,271.663,273.044)">
                                    <path d="M0.093,-0L0.093,-0.723L0.497,-0.723L0.497,-0.646L0.196,-0.646L0.196,-0.414L0.448,-0.414L0.448,-0.338L0.196,-0.338L0.196,-0.077L0.518,-0.077L0.518,-0L0.093,-0Z" style="fill:rgb(108,108,117);fill-rule:nonzero;"/>
                                </g>
                                <g transform="matrix(12,0,0,12,282.015,273.044)">
                                    <path d="M0.093,-0L0.093,-0.723L0.312,-0.723C0.381,-0.723 0.434,-0.707 0.471,-0.677C0.508,-0.646 0.527,-0.602 0.527,-0.543C0.527,-0.447 0.478,-0.379 0.381,-0.338L0.622,-0L0.496,-0L0.291,-0.306L0.195,-0.306L0.195,-0L0.093,-0ZM0.195,-0.382L0.228,-0.382C0.357,-0.382 0.421,-0.433 0.421,-0.534C0.421,-0.609 0.367,-0.646 0.259,-0.646L0.195,-0.646L0.195,-0.382Z" style="fill:rgb(108,108,117);fill-rule:nonzero;"/>
                                </g>
                                <g transform="matrix(12,0,0,12,293.451,273.044)">
                                    <path d="M0.291,-0L0.018,-0.723L0.12,-0.723L0.344,-0.131L0.56,-0.723L0.649,-0.723L0.387,-0L0.291,-0Z" style="fill:rgb(108,108,117);fill-rule:nonzero;"/>
                                </g>
                                <g transform="matrix(12,0,0,12,305.145,273.044)">
                                    <path d="M0.459,-0.276L0.336,-0.588L0.213,-0.276L0.459,-0.276ZM0.568,-0L0.489,-0.2L0.183,-0.2L0.104,-0L0.008,-0L0.295,-0.723L0.396,-0.723L0.679,-0L0.568,-0Z" style="fill:rgb(108,108,117);fill-rule:nonzero;"/>
                                </g>
                                <g transform="matrix(12,0,0,12,317.272,273.044)">
                                    <path d="M0.403,0.018C0.291,0.018 0.204,-0.015 0.143,-0.081C0.081,-0.147 0.051,-0.24 0.051,-0.361C0.051,-0.481 0.082,-0.575 0.144,-0.641C0.207,-0.708 0.294,-0.741 0.408,-0.741C0.472,-0.741 0.548,-0.73 0.635,-0.709L0.635,-0.613C0.536,-0.647 0.46,-0.664 0.406,-0.664C0.328,-0.664 0.267,-0.638 0.224,-0.584C0.181,-0.531 0.16,-0.457 0.16,-0.36C0.16,-0.268 0.183,-0.195 0.229,-0.142C0.274,-0.089 0.337,-0.062 0.417,-0.062C0.485,-0.062 0.558,-0.083 0.636,-0.125L0.636,-0.037C0.565,-0 0.487,0.018 0.403,0.018ZM0.574,-0.94L0.456,-0.783L0.35,-0.783L0.232,-0.94L0.304,-0.94L0.402,-0.841L0.403,-0.841L0.501,-0.94L0.574,-0.94Z" style="fill:rgb(108,108,117);fill-rule:nonzero;"/>
                                </g>
                                <g transform="matrix(12,0,0,12,329.423,273.044)">
                                    <path d="M0.093,-0L0.093,-0.723L0.194,-0.723L0.558,-0.165L0.558,-0.723L0.646,-0.723L0.646,-0L0.545,-0L0.181,-0.558L0.181,-0L0.093,-0Z" style="fill:rgb(108,108,117);fill-rule:nonzero;"/>
                                </g>
                                <g transform="matrix(12,0,0,12,342.136,273.044)">
                                    <path d="M0.093,-0L0.093,-0.723L0.195,-0.723L0.195,-0L0.093,-0ZM0.074,-0.783L0.191,-0.94L0.303,-0.94L0.146,-0.783L0.074,-0.783Z" style="fill:rgb(108,108,117);fill-rule:nonzero;"/>
                                </g>
                                <g transform="matrix(12,0,0,12,357.086,273.044)">
                                    <path d="M0.235,0.018C0.186,0.018 0.124,0.007 0.049,-0.014L0.049,-0.115C0.13,-0.077 0.197,-0.059 0.25,-0.059C0.29,-0.059 0.322,-0.069 0.347,-0.09C0.372,-0.111 0.384,-0.139 0.384,-0.174C0.384,-0.202 0.376,-0.226 0.36,-0.246C0.344,-0.266 0.314,-0.288 0.271,-0.313L0.221,-0.341C0.159,-0.376 0.116,-0.41 0.091,-0.441C0.065,-0.472 0.053,-0.508 0.053,-0.549C0.053,-0.605 0.073,-0.651 0.113,-0.687C0.154,-0.723 0.205,-0.741 0.268,-0.741C0.323,-0.741 0.382,-0.731 0.444,-0.713L0.444,-0.619C0.368,-0.649 0.311,-0.664 0.273,-0.664C0.238,-0.664 0.209,-0.655 0.186,-0.636C0.162,-0.617 0.151,-0.593 0.151,-0.564C0.151,-0.54 0.159,-0.519 0.176,-0.5C0.193,-0.482 0.224,-0.46 0.269,-0.434L0.321,-0.405C0.383,-0.369 0.427,-0.336 0.452,-0.304C0.476,-0.273 0.489,-0.235 0.489,-0.19C0.489,-0.128 0.466,-0.077 0.419,-0.039C0.373,-0.001 0.311,0.018 0.235,0.018Z" style="fill:rgb(108,108,117);fill-rule:nonzero;"/>
                                </g>
                                <g transform="matrix(12,0,0,12,367.397,273.044)">
                                    <path d="M0.25,-0L0.25,-0.302L0.008,-0.723L0.125,-0.723L0.313,-0.396L0.515,-0.723L0.61,-0.723L0.352,-0.304L0.352,-0L0.25,-0Z" style="fill:rgb(108,108,117);fill-rule:nonzero;"/>
                                </g>
                                <g transform="matrix(12,0,0,12,378.721,273.044)">
                                    <path d="M0.235,0.018C0.186,0.018 0.124,0.007 0.049,-0.014L0.049,-0.115C0.13,-0.077 0.197,-0.059 0.25,-0.059C0.29,-0.059 0.322,-0.069 0.347,-0.09C0.372,-0.111 0.384,-0.139 0.384,-0.174C0.384,-0.202 0.376,-0.226 0.36,-0.246C0.344,-0.266 0.314,-0.288 0.271,-0.313L0.221,-0.341C0.159,-0.376 0.116,-0.41 0.091,-0.441C0.065,-0.472 0.053,-0.508 0.053,-0.549C0.053,-0.605 0.073,-0.651 0.113,-0.687C0.154,-0.723 0.205,-0.741 0.268,-0.741C0.323,-0.741 0.382,-0.731 0.444,-0.713L0.444,-0.619C0.368,-0.649 0.311,-0.664 0.273,-0.664C0.238,-0.664 0.209,-0.655 0.186,-0.636C0.162,-0.617 0.151,-0.593 0.151,-0.564C0.151,-0.54 0.159,-0.519 0.176,-0.5C0.193,-0.482 0.224,-0.46 0.269,-0.434L0.321,-0.405C0.383,-0.369 0.427,-0.336 0.452,-0.304C0.476,-0.273 0.489,-0.235 0.489,-0.19C0.489,-0.128 0.466,-0.077 0.419,-0.039C0.373,-0.001 0.311,0.018 0.235,0.018Z" style="fill:rgb(108,108,117);fill-rule:nonzero;"/>
                                </g>
                                <g transform="matrix(12,0,0,12,389.032,273.044)">
                                    <path d="M0.265,-0L0.265,-0.646L0.009,-0.646L0.009,-0.723L0.624,-0.723L0.624,-0.646L0.368,-0.646L0.368,-0L0.265,-0Z" style="fill:rgb(108,108,117);fill-rule:nonzero;"/>
                                </g>
                                <g transform="matrix(12,0,0,12,400.468,273.044)">
                                    <path d="M0.093,-0L0.093,-0.723L0.497,-0.723L0.497,-0.646L0.196,-0.646L0.196,-0.414L0.448,-0.414L0.448,-0.338L0.196,-0.338L0.196,-0.077L0.518,-0.077L0.518,-0L0.093,-0ZM0.223,-0.783L0.34,-0.94L0.452,-0.94L0.295,-0.783L0.223,-0.783Z" style="fill:rgb(108,108,117);fill-rule:nonzero;"/>
                                </g>
                                <g transform="matrix(12,0,0,12,410.82,273.044)">
                                    <path d="M0.093,-0L0.093,-0.723L0.235,-0.723L0.436,-0.164L0.642,-0.723L0.769,-0.723L0.769,-0L0.673,-0L0.673,-0.588L0.474,-0.048L0.375,-0.048L0.181,-0.589L0.181,-0L0.093,-0Z" style="fill:rgb(108,108,117);fill-rule:nonzero;"/>
                                </g>
                                <g transform="matrix(12,0,0,12,425.004,273.044)">
                                    <path d="M0.122,-0L0.122,-0.096L0.218,-0.096L0.218,-0L0.122,-0ZM0.122,-0.193L0.122,-0.219C0.122,-0.281 0.146,-0.34 0.194,-0.395L0.225,-0.43C0.276,-0.489 0.301,-0.537 0.301,-0.574C0.301,-0.603 0.29,-0.626 0.268,-0.643C0.245,-0.66 0.215,-0.668 0.177,-0.668C0.127,-0.668 0.074,-0.656 0.018,-0.632L0.018,-0.714C0.078,-0.732 0.135,-0.741 0.187,-0.741C0.253,-0.741 0.306,-0.726 0.345,-0.697C0.384,-0.667 0.404,-0.626 0.404,-0.576C0.404,-0.547 0.398,-0.522 0.387,-0.502C0.376,-0.481 0.354,-0.456 0.322,-0.425L0.292,-0.397C0.262,-0.368 0.242,-0.344 0.232,-0.325C0.223,-0.306 0.218,-0.279 0.218,-0.247L0.218,-0.193L0.122,-0.193Z" style="fill:rgb(108,108,117);fill-rule:nonzero;"/>
                                </g>
                            </g>
                            <g transform="matrix(1,0,0,1,443.209,261.726)">
                                <path d="M0,-1.663L-320.885,-1.663C-321.344,-1.663 -321.716,-1.291 -321.716,-0.832C-321.716,-0.372 -321.344,0 -320.885,0L0,0C0.459,0 0.831,-0.372 0.831,-0.832C0.831,-1.291 0.459,-1.663 0,-1.663" style="fill:rgb(211,211,221);fill-rule:nonzero;"/>
                            </g>
                        </g>
                    </g>
                </g>
            </g>
        </g>
    </g>
    <defs>
        <linearGradient id="_Linear3" x1="0" y1="0" x2="1" y2="0" gradientUnits="userSpaceOnUse" gradientTransform="matrix(1,0,0,1,0,0.0103772)"><stop offset="0" style="stop-color:rgb(250,113,205);stop-opacity:1"/><stop offset="1" style="stop-color:rgb(196,113,245);stop-opacity:1"/></linearGradient>
        <linearGradient id="_Linear4" x1="0" y1="0" x2="1" y2="0" gradientUnits="userSpaceOnUse" gradientTransform="matrix(1,0,0,1,0,0.0747856)"><stop offset="0" style="stop-color:rgb(118,75,162);stop-opacity:1"/><stop offset="1" style="stop-color:rgb(102,126,234);stop-opacity:1"/></linearGradient>
        <linearGradient id="_Linear5" x1="0" y1="0" x2="1" y2="0" gradientUnits="userSpaceOnUse" gradientTransform="matrix(1,0,0,1,0,-2.62886e-06)"><stop offset="0" style="stop-color:rgb(79,172,254);stop-opacity:1"/><stop offset="1" style="stop-color:rgb(0,242,254);stop-opacity:1"/></linearGradient>
        <linearGradient id="_Linear6" x1="0" y1="0" x2="1" y2="0" gradientUnits="userSpaceOnUse" gradientTransform="matrix(0.976689,-0.214657,0.214657,0.976689,0.00987168,0.0909043)"><stop offset="0" style="stop-color:rgb(250,113,205);stop-opacity:1"/><stop offset="1" style="stop-color:rgb(196,113,245);stop-opacity:1"/></linearGradient>
        <linearGradient id="_Linear7" x1="0" y1="0" x2="1" y2="0" gradientUnits="userSpaceOnUse" gradientTransform="matrix(0.991778,-0.127971,0.127971,0.991778,0.00399279,0.0621447)"><stop offset="0" style="stop-color:rgb(250,113,205);stop-opacity:1"/><stop offset="1" style="stop-color:rgb(196,113,245);stop-opacity:1"/></linearGradient>
        <linearGradient id="_Linear8" x1="0" y1="0" x2="1" y2="0" gradientUnits="userSpaceOnUse" gradientTransform="matrix(0.981491,-0.19151,0.19151,0.981491,0.00750352,0.0776362)"><stop offset="0" style="stop-color:rgb(250,113,205);stop-opacity:1"/><stop offset="1" style="stop-color:rgb(196,113,245);stop-opacity:1"/></linearGradient>
    </defs>
</svg>
